<svg id="visual" viewBox="0 0 900 600" width="900" height="600" xmlns="http://www.w3.org/2000/svg" xmlns:xlink="http://www.w3.org/1999/xlink" version="1.1"><rect x="0" y="0" width="900" height="600" fill="#002233"></rect><path d="M0 566L25 550.3C50 534.7 100 503.3 150 498.8C200 494.3 250 516.7 300 515.8C350 515 400 491 450 494C500 497 550 527 600 526.2C650 525.3 700 493.7 750 478C800 462.3 850 462.7 875 462.8L900 463L900 601L875 601C850 601 800 601 750 601C700 601 650 601 600 601C550 601 500 601 450 601C400 601 350 601 300 601C250 601 200 601 150 601C100 601 50 601 25 601L0 601Z" fill="#3267b6" stroke-linecap="round" stroke-linejoin="miter"></path></svg>